<?xml version="1.0" standalone="no"?>
<!DOCTYPE svg PUBLIC "-//W3C//DTD SVG 20010904//EN"
 "http://www.w3.org/TR/2001/REC-SVG-20010904/DTD/svg10.dtd">
<svg version="1.0" xmlns="http://www.w3.org/2000/svg"
 width="75.000000pt" height="75.000000pt" viewBox="0 0 75.000000 75.000000"
 preserveAspectRatio="xMidYMid meet">
<metadata>
Created by potrace 1.14, written by Peter Selinger 2001-2017
</metadata>
<g transform="translate(0.000000,75.000000) scale(0.100000,-0.100000)"
fill="#000000" stroke="none">
<path d="M125 404 c0 -147 1 -149 62 -160 15 -3 31 -8 37 -11 21 -13 182 -20
231 -9 17 3 44 8 60 11 75 14 105 26 106 43 1 21 1 220 0 245 -1 16 -20 17
-249 17 l-248 0 1 -136z m476 106 c1 -5 2 -17 2 -25 0 -46 10 -44 -232 -44
l-229 0 0 39 -1 40 230 0 c145 0 229 -4 230 -10z"/>
<path d="M79 508 c0 -2 -2 -71 -5 -154 l-3 -151 42 -13 c23 -7 56 -17 72 -22
40 -14 281 -20 325 -9 19 5 65 17 103 27 l67 17 -6 151 c-3 83 -7 153 -10 155
-10 11 -13 -14 -16 -149 l-3 -145 -62 -17 c-34 -9 -74 -15 -88 -14 -14 2 -25
0 -25 -5 0 -4 -19 -7 -43 -6 -23 0 -48 -3 -56 -7 -8 -5 -12 -5 -9 0 4 5 -26
10 -67 10 -45 1 -86 8 -105 18 -18 9 -36 13 -40 11 -5 -3 -19 0 -32 5 -23 11
-23 14 -23 151 1 77 -3 143 -7 145 -4 3 -8 4 -9 2z"/>
<path d="M6 461 c3 -20 10 -54 14 -75 5 -22 7 -42 5 -45 -1 -4 -6 -31 -9 -63
-6 -54 -6 -56 14 -51 20 5 21 12 19 129 -1 68 -5 127 -8 132 -3 5 -14 9 -24 9
-14 0 -16 -6 -11 -36z"/>
<path d="M707 493 c-11 -11 -8 -263 3 -263 15 0 25 4 24 10 -11 38 -11 138 0
188 7 34 10 64 8 67 -7 7 -27 6 -35 -2z"/>
</g>
</svg>
